<svg width="24" height="24" viewBox="0 0 24 24" fill="none" xmlns="http://www.w3.org/2000/svg">
<path d="M2.57146 16.2857C3.51824 16.2857 4.28575 15.1345 4.28575 13.7143C4.28575 12.2942 3.51824 11.1429 2.57146 11.1429C1.62469 11.1429 0.857178 12.2942 0.857178 13.7143C0.857178 15.1345 1.62469 16.2857 2.57146 16.2857Z" stroke="#DEE2E6" stroke-width="1.71429" stroke-linecap="round" stroke-linejoin="round"/>
<path d="M7.71429 8.57145C8.66106 8.57145 9.42857 7.42018 9.42857 6.00002C9.42857 4.57986 8.66106 3.42859 7.71429 3.42859C6.76751 3.42859 6 4.57986 6 6.00002C6 7.42018 6.76751 8.57145 7.71429 8.57145Z" stroke="#DEE2E6" stroke-width="1.71429" stroke-linecap="round" stroke-linejoin="round"/>
<path d="M16.2857 8.57145C17.2325 8.57145 18 7.42018 18 6.00002C18 4.57986 17.2325 3.42859 16.2857 3.42859C15.3389 3.42859 14.5714 4.57986 14.5714 6.00002C14.5714 7.42018 15.3389 8.57145 16.2857 8.57145Z" stroke="#DEE2E6" stroke-width="1.71429" stroke-linecap="round" stroke-linejoin="round"/>
<path d="M21.4286 16.2857C22.3754 16.2857 23.1429 15.1345 23.1429 13.7143C23.1429 12.2942 22.3754 11.1429 21.4286 11.1429C20.4819 11.1429 19.7144 12.2942 19.7144 13.7143C19.7144 15.1345 20.4819 16.2857 21.4286 16.2857Z" stroke="#DEE2E6" stroke-width="1.71429" stroke-linecap="round" stroke-linejoin="round"/>
<path d="M17.1429 17.1429C17.1429 19.5086 14.3657 20.5715 12 20.5715C9.63432 20.5715 6.85718 19.5086 6.85718 17.1429C6.85718 14.7772 8.57146 11.1429 12 11.1429C15.4286 11.1429 17.1429 14.7772 17.1429 17.1429Z" stroke="#DEE2E6" stroke-width="1.71429" stroke-linecap="round" stroke-linejoin="round"/>
</svg>
